# xmcd
#
# Track frame offsets: 
#        150
#        10114
#        22584
#        36090
#        50021
#        59709
#        71351
#        86701
#        98173
#        108433
#        119066
#        130091
#        139300
#        150530
#        159240
#        173363
#        185229
#        195494
#        208888
#        218735
#        231217
#        240263
#        250028
#        262547
#        276281
#        287988
#
# Disc length: 4005 seconds
#
# Revision: 3
# Processed by: cddbd v1.5.2PL0 Copyright (c) Steve Scherf et al.
# Submitted via: ExactAudioCopy v1.0b1
#
DISCID=6a0fa31a
DTITLE=Joe Tex - Hold What You've Got - The New Boss
DYEAR=2001
DGENRE=Soul
TTITLE0=You Got What It Takes
TTITLE1=Tell Me Right Now
TTITLE2=One Monkey Don't Stop No Show
TTITLE3=Hold What You've Got
TTITLE4=I'm Not Going To Work Today
TTITLE5=Are We Ready
TTITLE6=You Better Get It
TTITLE7=Heep See Few Know
TTITLE8=Fresh Out Of Tears
TTITLE9=You Can Stay (But The Noise Must Go)
TTITLE10=There Is A Girl
TTITLE11=Together We Stand
TTITLE12=C. C. Rider
TTITLE13=Stop Look And Listen
TTITLE14=For Your Love
TTITLE15=A Woman (Can Change A Man)
TTITLE16=What In The World
TTITLE17=Don't Make Your Children Pay
TTITLE18=King Of The Road
TTITLE19=Detroit City
TTITLE20=Any Little Bit
TTITLE21=I Want To Do Everything For You
TTITLE22=Just Out Of Reach
TTITLE23=Release Me
TTITLE24=Together Again
TTITLE25=Make the World Go Away
EXTD=
EXTT0=
EXTT1=
EXTT2=
EXTT3=
EXTT4=
EXTT5=
EXTT6=
EXTT7=
EXTT8=
EXTT9=
EXTT10=
EXTT11=
EXTT12=
EXTT13=
EXTT14=
EXTT15=
EXTT16=
EXTT17=
EXTT18=
EXTT19=
EXTT20=
EXTT21=
EXTT22=
EXTT23=
EXTT24=
EXTT25=
PLAYORDER=
